# xmcd
#
# Track frame offsets:
# 150
# 14889
# 128612
# 166306
# 200575
# 242245
# 273545
# 291850
#
# Disc length: 4601 seconds
#
#
# Revision: 2
# Processed by: cddbd v1.5.1PL0 Copyright (c) Steve Scherf et al.
# Submitted via: FreeRIP 2.90 
#
DISCID=7911f708
DTITLE=Stevie Ray Vaughan and Buddy Guy - Live In Chigaco
DYEAR=1900
DGENRE=Blues
TTITLE0=Still Got The Blues
TTITLE1=Blues Jam
TTITLE2=Scuttle Buttin'
TTITLE3=Leave Me Girl Alone
TTITLE4=Worry, Worry
TTITLE5=The Things That I Used To Do
TTITLE6=Pride And Joy
TTITLE7=Tin Pan Alley
EXTD=
EXTT0=
EXTT1=
EXTT2=
EXTT3=
EXTT4=
EXTT5=
EXTT6=
EXTT7=
PLAYORDER=
